<svg xmlns="http://www.w3.org/2000/svg" version="1.1" xmlns:xlink="http://www.w3.org/1999/xlink" width="512" height="512" x="0" y="0" viewBox="0 0 100 100" style="enable-background:new 0 0 512 512" xml:space="preserve" class=""><g><path fill="#ffffff" d="M81.762 13.664C66.477 29.112 50.469 46.18 35.308 61.636l-18.23-15.013a4.44 4.44 0 0 0-6.252.61l-7.317 8.905a4.44 4.44 0 0 0 .609 6.246l29.454 24.248a4.433 4.433 0 0 0 6.013-.34c9.472-9.825 40.279-41.74 56.632-58.257a4.438 4.438 0 0 0-.024-6.267l-8.149-8.118a4.435 4.435 0 0 0-6.282.014z" opacity="1" data-original="#ff7440" class=""></path></g></svg>